<svg version="1.0" xmlns="http://www.w3.org/2000/svg"
 width="700.000000pt" height="700.000000pt" viewBox="0 0 700.000000 700.000000"
 preserveAspectRatio="xMidYMid meet" fill="#0a0a0c">
<g transform="translate(0.000000,700.000000) scale(0.100000,-0.100000)"
 stroke="none">
<path d="M3270 6994 c-320 -29 -585 -81 -848 -165 -372 -119 -798 -347 -1107
-593 -139 -111 -463 -438 -569 -576 -405 -523 -636 -1086 -723 -1755 -25 -196
-25 -614 0 -810 75 -579 255 -1068 562 -1530 129 -193 244 -334 414 -509 301
-306 560 -495 941 -685 377 -188 726 -292 1155 -348 196 -25 614 -25 810 0
301 39 602 113 850 210 312 121 680 331 930 532 130 104 395 363 498 488 388
468 644 1009 756 1597 43 227 55 374 56 650 0 276 -13 419 -56 650 -157 826
-596 1554 -1259 2089 -322 260 -785 500 -1188 617 -327 94 -590 133 -937 138
-132 2 -260 2 -285 0z m1771 -723 c102 -39 182 -126 213 -231 19 -63 22 -265
6 -405 -33 -290 -241 -1003 -406 -1392 -25 -59 -171 -359 -325 -665 l-279
-557 0 -160 c0 -88 5 -195 12 -238 6 -43 12 -91 11 -106 -1 -50 24 -9 50 83
39 137 39 140 21 140 -23 0 -13 33 14 45 12 5 22 18 22 28 0 10 6 28 14 40 8
12 44 101 81 197 36 96 106 256 155 355 123 249 187 317 322 345 106 21 169
-13 207 -114 24 -64 28 -99 46 -426 27 -471 72 -724 139 -779 15 -12 22 -12
53 3 50 24 144 99 180 144 16 20 64 83 107 140 42 56 81 102 87 102 30 0 20
-82 -27 -227 -68 -209 -144 -310 -251 -334 -142 -32 -341 58 -435 197 -92 135
-128 343 -154 877 l-7 138 -43 -46 c-24 -25 -44 -54 -44 -65 0 -10 -5 -22 -11
-26 -24 -14 -69 -99 -69 -130 0 -31 -41 -94 -61 -94 -12 0 27 99 108 276 88
188 102 234 27 89 -91 -177 -252 -559 -289 -685 -18 -61 17 4 65 120 48 117
75 168 65 124 -3 -10 -38 -158 -79 -329 -74 -308 -106 -457 -144 -672 -24
-133 -43 -177 -83 -193 -24 -11 -37 -10 -75 5 -73 28 -112 68 -120 123 -7 54
-29 112 -41 112 -5 0 -14 -5 -20 -11 -29 -29 -108 297 -145 601 -17 139 -17
857 0 1080 52 678 158 1223 359 1835 123 376 178 489 293 606 59 60 72 69 104
69 20 0 53 9 74 21 32 18 49 20 127 16 58 -3 110 -12 146 -26z m-1583 -125
c26 -13 79 -33 117 -46 129 -41 195 -78 261 -145 103 -105 175 -245 208 -408
47 -228 -16 -471 -240 -919 -196 -393 -264 -468 -360 -395 -110 82 -131 106
-154 180 -57 182 -93 284 -112 310 -39 55 -5 41 53 -22 l59 -64 26 24 c14 13
47 56 73 95 26 39 65 88 87 110 102 103 322 627 326 777 2 91 -37 106 -278
107 -152 0 -296 -18 -454 -57 -87 -22 -314 -108 -370 -141 -25 -14 -71 -38
-102 -53 -70 -34 -158 -90 -218 -139 -25 -20 -67 -49 -94 -65 -114 -65 -524
-484 -634 -649 -79 -118 -173 -298 -195 -374 -37 -124 -31 -297 14 -418 27
-70 114 -165 247 -267 130 -99 215 -153 557 -352 160 -93 305 -184 324 -202
19 -19 40 -32 47 -29 24 9 210 -147 276 -231 83 -106 237 -322 272 -381 50
-82 72 -149 86 -255 30 -223 -74 -448 -347 -754 -58 -65 -309 -241 -430 -302
-85 -42 -146 -57 -302 -71 -159 -15 -219 -10 -331 28 -100 34 -136 51 -176 86
-16 13 -52 42 -80 64 -35 28 -61 60 -86 108 -71 135 -94 240 -64 293 13 23 14
22 36 -43 31 -95 68 -129 162 -151 41 -9 117 -16 173 -17 90 0 110 4 203 36
242 86 344 135 487 235 98 68 269 232 335 322 100 134 155 288 148 417 l-3 74
-60 54 c-33 29 -83 67 -111 83 -27 16 -63 46 -78 66 -16 20 -47 45 -70 56 -22
11 -52 26 -66 34 -14 8 -37 15 -51 15 -14 0 -50 18 -80 39 -30 22 -73 44 -96
50 -22 6 -46 18 -53 26 -7 8 -23 15 -35 15 -38 0 -55 11 -55 36 0 28 -46 54
-135 78 -43 11 -67 24 -86 46 -17 20 -32 28 -42 25 -17 -7 -97 59 -97 80 0 8
-60 68 -132 135 -243 223 -370 382 -435 545 -85 211 -101 282 -110 500 l-6
150 33 95 c108 318 260 538 566 823 431 402 951 661 1439 718 55 6 114 17 130
24 17 8 31 14 33 14 1 1 24 -10 50 -23z"/>
<path d="M4890 6167 c-29 -30 -149 -268 -206 -408 -207 -505 -346 -1179 -409
-1989 -9 -113 -15 -230 -13 -260 l3 -55 214 430 c117 237 243 493 278 570 64
136 87 215 65 215 -6 0 7 35 29 78 49 95 115 296 130 394 6 40 17 88 25 106
42 99 105 682 74 682 -5 0 -10 -17 -11 -37 0 -21 -4 -47 -9 -58 -12 -31 -18
-5 -23 114 -5 89 -9 112 -34 159 -20 40 -37 59 -60 69 -30 12 -34 11 -53 -10z"/>
<path d="M5010 6165 c0 -2 12 -29 26 -60 28 -58 52 -86 39 -44 -17 54 -45 109
-55 109 -5 0 -10 -2 -10 -5z"/>
<path d="M5157 5758 c-15 -108 -18 -183 -7 -166 6 9 13 60 17 113 6 97 0 129
-10 53z"/>
<path d="M5100 5346 c0 -2 -23 -79 -51 -172 -66 -220 -125 -396 -210 -623 -38
-101 -67 -186 -65 -188 10 -10 211 538 276 752 50 166 67 235 56 235 -3 0 -6
-2 -6 -4z"/>
<path d="M4642 4081 c-6 -17 -9 -31 -6 -31 7 0 25 52 20 57 -2 2 -8 -10 -14
-26z"/>
<path d="M4540 3875 c-34 -69 -60 -129 -56 -132 3 -3 33 51 67 121 33 71 58
130 56 132 -2 3 -33 -52 -67 -121z"/>
<path d="M4796 3609 c-141 -167 -362 -742 -471 -1224 -4 -21 -3 -27 4 -20 6 6
60 157 120 335 127 378 186 530 283 730 108 224 113 238 64 179z"/>
<path d="M4391 3571 c-24 -46 -26 -55 -10 -45 13 8 42 74 35 81 -2 3 -14 -13
-25 -36z"/>
<path d="M5003 3014 c4 -84 12 -176 18 -205 13 -65 40 -152 45 -146 2 2 -3 41
-11 88 -8 46 -21 156 -30 243 -8 88 -18 162 -21 165 -4 3 -4 -62 -1 -145z"/>
<path d="M2875 5961 c-154 -45 -357 -126 -511 -205 -61 -31 -116 -56 -122 -56
-6 0 -19 -11 -28 -25 -9 -14 -24 -25 -34 -25 -9 0 -37 -22 -62 -50 -36 -40
-52 -50 -77 -50 -26 0 -50 -17 -129 -89 -267 -243 -464 -483 -562 -686 -81
-166 -85 -196 -6 -47 108 207 245 380 459 583 78 74 160 146 182 159 22 13 90
60 150 105 61 45 130 95 155 112 115 78 420 211 609 267 68 20 127 38 129 41
12 11 -29 2 -153 -34z"/>
<path d="M3335 5923 c-129 -16 -312 -57 -372 -82 -38 -17 -123 -44 -189 -61
-126 -33 -367 -140 -414 -184 -14 -13 -47 -35 -75 -49 -118 -59 -419 -314
-543 -459 -100 -118 -234 -300 -267 -361 l-28 -52 28 25 c21 19 26 20 22 8
-19 -50 -19 -53 2 -30 11 13 23 40 27 60 10 56 23 76 39 62 10 -9 19 -3 41 27
16 21 46 57 67 81 21 23 47 64 59 90 19 42 22 44 27 24 6 -22 7 -22 41 15 20
21 45 49 55 63 l20 24 -27 -17 c-36 -22 -36 -5 -1 27 17 16 30 21 34 15 4 -8
12 -8 26 -1 29 16 45 38 52 74 5 25 14 34 41 43 21 7 40 22 48 39 11 22 19 27
38 22 21 -6 25 -2 30 24 5 22 10 28 18 20 23 -18 156 88 156 125 0 7 7 18 15
25 13 10 15 9 15 -9 0 -30 14 -26 59 14 21 19 46 35 54 35 10 0 14 6 11 15 -5
11 1 15 18 15 35 0 187 76 225 112 23 23 38 29 55 25 17 -5 27 -1 36 13 8 14
22 20 45 19 36 -2 141 17 174 31 14 6 20 15 17 24 -3 9 6 17 27 25 47 16 54
14 33 -11 l-19 -21 35 7 c19 3 43 15 55 25 26 26 68 41 110 41 28 0 33 -3 28
-16 -5 -15 2 -16 68 -9 52 5 78 12 89 25 8 10 32 21 53 24 66 12 40 26 -45 25
-46 -1 -96 -4 -113 -6z"/>
<path d="M1998 5411 c-18 -17 -28 -31 -23 -31 16 0 71 47 63 55 -3 3 -21 -7
-40 -24z"/>
<path d="M1875 5298 l-40 -42 42 33 c45 34 60 51 46 51 -5 0 -27 -19 -48 -42z"/>
<path d="M1668 5091 c-84 -89 -167 -191 -155 -191 2 0 55 57 117 128 141 158
144 162 137 162 -3 0 -47 -45 -99 -99z"/>
<path d="M3063 2018 c-6 -7 -18 -35 -27 -63 -19 -58 -24 -66 -51 -81 -11 -6
-38 -36 -59 -67 -22 -31 -42 -55 -44 -52 -2 2 3 22 12 45 9 22 16 50 16 62 0
21 -2 20 -31 -8 -16 -16 -57 -68 -90 -117 -74 -107 -180 -199 -384 -332 -141
-93 -181 -125 -154 -125 37 0 208 98 314 179 33 25 109 92 169 150 60 58 111
100 114 93 9 -28 -166 -205 -307 -310 -208 -154 -531 -264 -734 -248 -60 4
-78 3 -74 -7 8 -24 117 -38 257 -33 157 6 285 31 391 75 165 69 392 245 488
378 131 183 192 307 207 424 7 50 4 58 -13 37z"/>
<path d="M2325 1413 c-33 -19 -67 -41 -76 -49 -18 -16 -243 -94 -271 -94 -10
0 -18 6 -18 14 0 12 -27 14 -147 13 -82 -1 -170 2 -198 7 -47 8 -49 8 -36 -8
22 -26 71 -48 94 -42 12 3 28 0 36 -7 9 -8 57 -12 145 -12 116 0 141 4 221 29
50 15 108 37 130 48 42 22 195 126 195 134 0 8 -16 1 -75 -33z"/>
</g>
</svg>
