<svg version="1.0" xmlns="http://www.w3.org/2000/svg"
 width="700.000000pt" height="700.000000pt" viewBox="0 0 700.000000 700.000000"
 preserveAspectRatio="xMidYMid meet" fill="#0a0a0c">
<g transform="translate(0.000000,700.000000) scale(0.100000,-0.100000)"
 stroke="none">
<path d="M3225 6994 c-16 -2 -73 -9 -125 -15 -312 -34 -670 -127 -945 -244
-451 -193 -795 -424 -1130 -760 -287 -288 -478 -550 -655 -904 -251 -502 -370
-1006 -370 -1571 0 -391 50 -715 166 -1072 195 -599 518 -1101 979 -1521 240
-219 487 -387 788 -537 370 -185 698 -286 1128 -347 176 -25 699 -25 879 0
722 102 1352 387 1880 851 491 432 861 1016 1044 1649 91 314 127 559 133 915
6 287 -6 445 -53 702 -139 763 -540 1471 -1127 1987 -241 212 -460 359 -750
503 -367 183 -707 288 -1122 346 -113 16 -639 29 -720 18z m1798 -720 c102
-36 188 -120 223 -215 36 -102 26 -382 -22 -614 -56 -265 -189 -716 -300
-1012 -83 -221 -160 -387 -450 -959 l-237 -467 12 -206 c6 -113 15 -233 19
-266 l7 -60 17 32 c20 35 68 195 68 224 0 11 -7 19 -15 19 -9 0 -12 6 -9 15 4
8 15 15 25 15 14 0 19 7 19 27 0 14 6 34 14 42 8 9 50 109 94 222 91 235 211
478 276 560 63 80 134 114 238 114 90 0 113 -15 148 -97 25 -59 35 -140 55
-488 28 -473 81 -728 153 -738 58 -9 185 101 305 261 46 62 91 118 100 126 15
12 17 11 18 -5 7 -122 -100 -404 -183 -484 -51 -50 -94 -63 -195 -59 -67 3
-90 10 -154 41 -106 53 -171 114 -214 201 -42 86 -79 226 -94 357 -9 73 -41
558 -41 611 0 6 -20 -11 -45 -38 -25 -26 -45 -55 -45 -65 0 -9 -13 -32 -29
-50 -37 -44 -51 -71 -51 -103 0 -31 -22 -76 -46 -96 -16 -13 -17 -12 -10 16 4
17 48 119 98 228 49 109 87 203 85 210 -14 35 -347 -729 -347 -796 0 -30 32
28 78 143 28 69 51 121 52 117 0 -5 -36 -158 -80 -342 -93 -389 -102 -429
-129 -595 -24 -145 -43 -214 -67 -241 -27 -29 -81 -24 -144 14 -56 33 -57 35
-80 132 -13 58 -37 90 -55 75 -16 -14 -35 32 -69 171 -69 283 -90 496 -90 919
0 554 38 981 130 1469 79 419 216 904 353 1251 81 206 214 370 301 370 21 0
42 4 45 10 19 31 183 34 268 4z m-1562 -133 c18 -11 64 -30 103 -42 39 -12 89
-30 112 -40 23 -11 46 -19 52 -19 20 0 143 -123 184 -183 152 -224 182 -477
89 -757 -76 -228 -229 -554 -358 -762 -58 -95 -81 -116 -134 -124 -30 -5 -41
1 -89 41 -107 90 -103 85 -149 231 -24 77 -56 168 -72 204 l-29 65 56 -57 c31
-32 62 -58 70 -58 14 0 75 76 130 164 16 25 35 46 41 46 45 0 262 462 318 675
29 112 31 152 10 182 -24 35 -83 44 -273 44 -177 0 -304 -15 -463 -56 -70 -18
-333 -119 -366 -140 -13 -9 -63 -36 -111 -61 -48 -24 -123 -71 -167 -104 -44
-34 -105 -75 -135 -92 -33 -19 -127 -102 -234 -207 -317 -312 -402 -419 -527
-666 -74 -146 -89 -206 -89 -347 0 -106 29 -224 71 -290 81 -126 276 -267 750
-544 333 -194 356 -209 365 -236 4 -13 12 -16 28 -12 19 4 42 -10 112 -68 106
-89 154 -142 276 -308 197 -268 236 -350 245 -525 6 -112 -12 -200 -66 -319
-62 -138 -249 -372 -373 -469 -196 -152 -367 -250 -475 -272 -102 -21 -320
-35 -378 -24 -117 22 -235 71 -297 123 -20 17 -57 48 -83 70 -51 43 -100 129
-134 240 -24 78 -25 94 -10 133 10 27 10 27 34 -32 46 -111 80 -139 202 -160
168 -30 250 -16 516 91 130 53 190 85 312 170 295 204 484 480 487 711 1 90
-12 123 -68 162 -24 18 -44 36 -44 41 0 6 -22 21 -49 35 -28 13 -67 45 -87 70
-21 25 -53 50 -70 55 -18 6 -38 17 -44 25 -6 8 -35 19 -64 25 -30 6 -73 25
-101 45 -27 20 -67 40 -89 46 -23 6 -47 16 -55 22 -8 7 -30 17 -50 22 -25 8
-36 16 -36 30 0 27 -56 61 -123 77 -38 8 -68 23 -93 45 -20 18 -46 33 -57 33
-24 0 -92 61 -92 83 0 8 -57 66 -126 128 -189 169 -346 351 -403 466 -39 79
-98 239 -116 315 -23 95 -37 350 -24 423 20 110 124 347 213 484 176 273 590
646 916 827 328 181 592 274 884 309 71 9 137 20 145 25 25 14 48 12 82 -9z"/>
<path d="M4881 6164 c-32 -40 -144 -265 -199 -401 -203 -492 -341 -1151 -406
-1933 -26 -315 -29 -380 -17 -380 6 0 104 188 217 418 332 672 376 771 354
797 -7 9 2 37 29 91 47 96 117 309 126 384 4 30 15 80 26 110 21 62 76 427 84
570 4 57 2 101 -4 110 -14 21 -21 10 -28 -51 -6 -48 -8 -51 -14 -24 -4 17 -7
60 -8 96 -1 90 -26 166 -66 206 -40 40 -67 42 -94 7z"/>
<path d="M5010 6165 c0 -9 14 -44 32 -78 40 -79 50 -52 12 33 -26 58 -44 76
-44 45z"/>
<path d="M5158 5790 c-14 -47 -22 -210 -10 -210 13 0 25 105 20 180 -2 43 -5
49 -10 30z"/>
<path d="M5081 5290 c-94 -312 -172 -545 -260 -779 -28 -73 -51 -141 -50 -150
3 -59 258 642 319 877 29 110 22 152 -9 52z"/>
<path d="M4642 4093 c-18 -32 -16 -51 4 -31 9 8 14 24 12 34 -4 18 -5 17 -16
-3z"/>
<path d="M4571 3945 c-78 -145 -136 -298 -76 -200 33 54 128 265 122 271 -2 3
-23 -29 -46 -71z"/>
<path d="M4785 3603 c-74 -101 -205 -376 -282 -593 -49 -138 -167 -540 -178
-607 -17 -105 20 -23 106 235 107 324 202 575 272 722 122 259 136 290 127
290 -5 0 -26 -21 -45 -47z"/>
<path d="M4393 3582 c-25 -44 -29 -62 -12 -62 13 0 41 66 37 87 -2 10 -12 0
-25 -25z"/>
<path d="M5000 3054 c0 -76 5 -168 10 -204 12 -78 49 -204 57 -196 3 3 -2 54
-11 113 -9 59 -22 177 -30 261 -8 85 -17 156 -20 160 -3 3 -6 -57 -6 -134z"/>
<path d="M2860 5961 c-69 -21 -168 -55 -220 -75 -124 -50 -422 -195 -435 -212
-5 -8 -26 -22 -45 -33 -19 -10 -41 -30 -48 -44 -9 -18 -26 -30 -55 -38 -71
-19 -84 -29 -231 -174 -232 -228 -389 -423 -468 -580 -48 -94 -91 -205 -80
-205 4 0 36 57 71 127 79 156 227 358 356 485 176 174 235 228 275 250 25 15
106 71 180 127 201 150 459 276 739 360 73 22 136 43 139 46 15 15 -67 -1
-178 -34z"/>
<path d="M3255 5915 c-148 -23 -236 -45 -303 -74 -37 -16 -120 -43 -184 -60
-127 -33 -341 -126 -396 -173 -18 -15 -54 -39 -80 -52 -242 -123 -672 -557
-822 -831 l-33 -60 33 30 c32 29 33 27 14 -20 -3 -8 -2 -15 3 -15 10 0 34 49
51 105 7 22 15 29 30 28 13 -2 26 5 32 17 5 10 35 47 65 82 31 35 61 81 67
102 11 34 13 37 18 18 5 -21 11 -17 69 42 36 36 62 69 58 72 -4 4 -15 0 -25
-9 -29 -26 -38 -20 -12 8 16 17 30 23 44 19 29 -7 76 37 76 69 0 29 14 43 53
52 15 4 32 19 40 34 8 18 20 26 37 26 20 0 26 6 28 29 3 22 6 26 12 15 8 -12
14 -11 42 5 66 39 101 71 119 111 10 22 18 32 18 23 1 -30 41 -21 77 18 25 26
39 34 54 29 22 -7 26 5 8 23 -9 9 -5 12 18 12 41 0 193 75 227 111 20 23 32
29 48 24 14 -5 27 0 41 15 11 12 27 19 35 16 9 -4 50 1 92 9 106 22 113 25
107 41 -4 10 5 20 29 30 46 19 55 17 26 -6 l-23 -20 32 0 c19 0 48 12 73 30
23 16 61 32 85 36 38 6 42 5 36 -11 -7 -17 -1 -18 75 -12 69 4 85 9 98 26 8
12 25 21 38 21 30 0 55 10 55 21 0 13 -191 9 -285 -6z"/>
<path d="M1992 5409 c-18 -17 -31 -34 -28 -36 7 -7 76 45 76 58 0 16 -14 10
-48 -22z"/>
<path d="M1880 5311 c-25 -21 -41 -43 -37 -47 4 -4 29 13 55 39 57 57 45 62
-18 8z"/>
<path d="M1748 5181 c-31 -25 -197 -213 -221 -252 -40 -63 4 -23 119 109 143
163 162 190 102 143z"/>
<path d="M3047 1998 c-8 -18 -19 -50 -26 -71 -8 -23 -22 -42 -36 -47 -12 -5
-41 -36 -64 -70 -22 -34 -41 -61 -41 -59 0 2 9 28 21 58 11 30 17 61 14 69 -8
22 -42 -13 -106 -107 -93 -136 -201 -231 -435 -383 -134 -87 -152 -102 -135
-112 23 -14 217 94 344 191 34 26 106 90 160 142 104 101 127 108 49 14 -100
-120 -285 -263 -437 -338 -197 -97 -357 -139 -527 -138 -109 1 -131 -6 -80
-25 50 -19 84 -23 198 -23 316 1 548 91 793 310 61 55 181 197 181 216 0 3 21
35 46 72 26 38 55 87 65 111 25 58 61 200 54 212 -11 18 -25 10 -38 -22z"/>
<path d="M2365 1439 c-22 -12 -67 -38 -100 -59 -33 -21 -110 -54 -172 -74
-127 -41 -135 -42 -127 -21 6 14 -13 15 -147 14 -86 -1 -175 4 -203 10 -54 13
-65 9 -46 -14 20 -24 68 -47 93 -44 12 2 33 -3 46 -10 17 -9 60 -12 160 -9
120 4 147 8 234 37 90 30 201 93 297 171 32 25 16 25 -35 -1z"/>
</g>
</svg>
